<svg width="40" height="40" viewBox="0 0 40 40" fill="none" xmlns="http://www.w3.org/2000/svg">
<rect x="0.5" y="0.5" width="39" height="39" fill="black" stroke="black"/>
<path d="M7.136 11C7.088 10.604 7.064 10.22 7.04 9.836H6.98C6.584 10.652 5.924 11.12 5.06 11.12C3.548 11.12 2.432 9.704 2.432 7.76C2.432 5.828 3.548 4.4 5.06 4.4C5.888 4.4 6.548 4.832 6.944 5.6H7.004V2.12H8.012V8.84C8.012 9.452 8.048 10.244 8.096 11H7.136ZM5.264 10.208C6.308 10.208 7.028 9.2 7.028 7.76C7.028 6.308 6.308 5.312 5.276 5.312C4.22 5.312 3.452 6.344 3.452 7.76C3.452 9.176 4.208 10.208 5.264 10.208ZM12.9393 11.12C11.3073 11.12 10.1073 9.716 10.1073 7.76C10.1073 5.804 11.3073 4.4 12.9393 4.4C14.5713 4.4 15.7713 5.804 15.7713 7.76C15.7713 9.716 14.5713 11.12 12.9393 11.12ZM12.9393 10.208C14.0073 10.208 14.7513 9.2 14.7513 7.76C14.7513 6.32 14.0073 5.312 12.9393 5.312C11.8713 5.312 11.1273 6.32 11.1273 7.76C11.1273 9.2 11.8713 10.208 12.9393 10.208ZM20.2186 8.828C20.2186 9.8 20.6386 10.268 21.5026 10.268C21.8626 10.268 22.2226 10.184 22.5826 10.004V10.844C22.2466 11.024 21.8146 11.12 21.3346 11.12C19.9426 11.12 19.2106 10.328 19.2106 8.828V5.42H17.3866V4.52H19.2106V2.648L20.2186 2.48V4.52H22.4626V5.42H20.2186V8.828ZM7.16 22.344H8.156C7.952 23.4 6.944 24.12 5.744 24.12C4.04 24.12 2.804 22.68 2.804 20.748C2.804 18.804 4.028 17.4 5.708 17.4C6.92 17.4 7.892 18.12 8.072 19.176H7.088C6.908 18.636 6.38 18.3 5.708 18.3C4.556 18.3 3.812 19.296 3.812 20.736C3.812 22.212 4.58 23.22 5.756 23.22C6.44 23.22 6.992 22.884 7.16 22.344ZM12.4713 24.12C10.8393 24.12 9.63931 22.716 9.63931 20.76C9.63931 18.804 10.8393 17.4 12.4713 17.4C14.1033 17.4 15.3033 18.804 15.3033 20.76C15.3033 22.716 14.1033 24.12 12.4713 24.12ZM12.4713 23.208C13.5393 23.208 14.2833 22.2 14.2833 20.76C14.2833 19.32 13.5393 18.312 12.4713 18.312C11.4033 18.312 10.6593 19.32 10.6593 20.76C10.6593 22.2 11.4033 23.208 12.4713 23.208ZM17.0266 24V17.52H17.9386V18.216H17.9866C18.1546 17.712 18.6226 17.4 19.1746 17.4C19.7626 17.4 20.2186 17.76 20.3866 18.348H20.4346C20.6626 17.724 21.1306 17.4 21.7786 17.4C22.7026 17.4 23.2906 18.072 23.2906 19.14V24H22.3066V19.272C22.3066 18.636 22.0186 18.24 21.5626 18.24C21.0346 18.24 20.6506 18.756 20.6506 19.488V24H19.6666V19.272C19.6666 18.624 19.3906 18.24 18.9346 18.24C18.3946 18.24 18.0106 18.768 18.0106 19.512V24H17.0266ZM3.044 30.52H3.992V31.732H4.052C4.436 30.88 5.12 30.4 6.008 30.4C7.532 30.4 8.624 31.816 8.624 33.76C8.624 35.704 7.52 37.12 5.996 37.12C5.156 37.12 4.508 36.688 4.112 35.932H4.052V39.4H3.044V30.52ZM5.828 31.312C4.772 31.312 4.028 32.32 4.028 33.76C4.028 35.2 4.772 36.208 5.828 36.208C6.884 36.208 7.604 35.212 7.604 33.76C7.604 32.308 6.884 31.312 5.828 31.312ZM11.7993 37H10.7913V30.52H11.7393V31.564H11.7873C12.1473 30.856 12.7953 30.436 13.5993 30.436C14.6193 30.436 15.3513 31.12 15.4713 32.176H14.4393C14.3313 31.648 13.8993 31.324 13.3353 31.324C12.4353 31.324 11.7993 32.14 11.7993 33.316V37ZM18.1546 33.952C18.2266 35.332 18.9586 36.232 20.0626 36.232C20.7346 36.232 21.2746 35.884 21.4666 35.344H22.4266C22.1866 36.412 21.2266 37.12 20.0386 37.12C18.3586 37.12 17.1586 35.704 17.1586 33.724C17.1586 31.78 18.2986 30.4 19.9066 30.4C21.4666 30.4 22.5466 31.696 22.5466 33.568V33.952H18.1546ZM19.9066 31.276C19.0066 31.276 18.3586 32.008 18.1906 33.16H21.5506C21.5026 32.02 20.8186 31.276 19.9066 31.276ZM24.7499 35.344H25.7339C25.8179 35.884 26.4659 36.292 27.2579 36.292C28.0739 36.292 28.6259 35.848 28.6259 35.188C28.6259 34.66 28.2779 34.396 27.3899 34.252L27.0899 34.216C25.6499 33.988 24.9899 33.424 24.9899 32.416C24.9899 31.228 25.9019 30.4 27.2219 30.4C28.4819 30.4 29.4899 31.156 29.5499 32.176H28.6019C28.5179 31.648 27.9539 31.264 27.2339 31.264C26.4899 31.264 25.9739 31.684 25.9739 32.308C25.9739 32.836 26.3339 33.112 27.1619 33.244L27.4499 33.292C28.9379 33.508 29.6219 34.084 29.6219 35.104C29.6219 36.316 28.6379 37.168 27.2099 37.168C25.8539 37.168 24.7979 36.388 24.7499 35.344ZM32.0893 35.344H33.0733C33.1573 35.884 33.8053 36.292 34.5973 36.292C35.4133 36.292 35.9653 35.848 35.9653 35.188C35.9653 34.66 35.6173 34.396 34.7293 34.252L34.4293 34.216C32.9893 33.988 32.3293 33.424 32.3293 32.416C32.3293 31.228 33.2413 30.4 34.5613 30.4C35.8213 30.4 36.8293 31.156 36.8893 32.176H35.9413C35.8573 31.648 35.2933 31.264 34.5733 31.264C33.8293 31.264 33.3133 31.684 33.3133 32.308C33.3133 32.836 33.6733 33.112 34.5013 33.244L34.7893 33.292C36.2773 33.508 36.9613 34.084 36.9613 35.104C36.9613 36.316 35.9773 37.168 34.5493 37.168C33.1933 37.168 32.1373 36.388 32.0893 35.344Z" fill="white"/>
</svg>
